<?xml version="1.0" encoding="iso-8859-1"?>
<!-- Generator: Adobe Illustrator 19.0.0, SVG Export Plug-In . SVG Version: 6.00 Build 0)  -->
<svg version="1.1" id="Capa_1" xmlns="http://www.w3.org/2000/svg" xmlns:xlink="http://www.w3.org/1999/xlink" x="0px" y="0px"
	 viewBox="0 0 496 496" style="enable-background:new 0 0 496 496;" xml:space="preserve">
<g>
	<polygon style="fill:#F0BC5E;" points="176,336 32,336 32,464 176,464 176,432 176,384 	"/>
	<path style="fill:#F0BC5E;" d="M472,352H328V224h144V352z"/>
</g>
<path d="M456,368h-40v-16h56V224.808l22.248-27.816L481.752,187l-29.6,37H416V0H0v496h416v-48h40c22.056,0,40-17.944,40-40
	S478.056,368,456,368z M160,382.456l-19.328,7.248C133.096,392.552,128,399.904,128,408s5.096,15.448,12.68,18.304l19.32,7.24V448
	H48v-96h112V382.456z M146.312,411.328c-1.384-0.52-2.312-1.856-2.312-3.328s0.928-2.808,2.304-3.32L192,387.544v40.912
	L146.312,411.328z M208,416h144v-16H208v-16h176v16h-16v16h16v16H208V416z M400,384h16v48h-16V384z M392.664,323.976L456,244.808
	V336H344v-96h95.352l-48.016,60.024l-17.68-17.68l-11.312,11.312L392.664,323.976z M400,480H16V16h384v208h-72v128h72v16H198.552
	L176,376.456V336H32v128h144v-24.456L198.552,448H400V480z M456,432h-24v-48h24c13.232,0,24,10.768,24,24S469.232,432,456,432z"/>
<path d="M279.736,281.944c-5.792-20.256-22.208-35.4-42.864-39.528L192,233.44v-2.104c14.8-8.592,25.824-22.928,30.048-39.952
	C236.808,188.544,248,175.576,248,160V88c0-16.688-12.84-30.44-29.168-31.872L209.6,49.2C194.816,38.112,176.488,32,158,32
	c-47.424,0-86,38.576-86,86v42c0,15.576,11.192,28.544,25.952,31.392c4.224,17.024,15.248,31.36,30.048,39.952v2.104l-44.864,8.976
	c-20.656,4.128-37.08,19.272-42.864,39.528L29.392,320h261.216L279.736,281.944z M144,237.896c5.128,1.328,10.464,2.104,16,2.104
	s10.872-0.776,16-2.104V240c0,8.824-7.176,16-16,16s-16-7.176-16-16V237.896z M224,173.776v-27.552c4.76,2.776,8,7.88,8,13.776
	S228.76,171,224,173.776z M158,48c15.048,0,29.968,4.976,42,14l13.336,10H216c8.824,0,16,7.176,16,16v44.448
	c-4.728-2.752-10.144-4.448-16-4.448h-64c-8.824,0-16-7.176-16-16h-16c0,8.824-7.176,16-16,16c-5.856,0-11.272,1.696-16,4.448V118
	C88,79.4,119.4,48,158,48z M88,160c0-5.896,3.24-11,8-13.776v27.552C91.24,171,88,165.896,88,160z M112,176v-33.112
	c6.272-1.632,11.84-5.024,16-9.744C133.864,139.8,142.456,144,152,144h56v32c0,26.472-21.528,48-48,48S112,202.472,112,176z
	 M230.248,304l-6.488-25.936l-15.52,3.872L213.752,304H106.248l5.512-22.064l-15.52-3.872L89.752,304H50.608l5.048-17.664
	c4.136-14.472,15.864-25.28,30.616-28.232l43.312-8.664C133.64,262.464,145.664,272,160,272s26.36-9.536,30.416-22.56l43.312,8.664
	c14.752,2.952,26.48,13.776,30.616,28.232L269.392,304H230.248z"/>
<rect x="264" y="32" width="120" height="16"/>
<rect x="264" y="64" width="120" height="16"/>
<rect x="264" y="96" width="120" height="16"/>
<rect x="264" y="128" width="120" height="16"/>
<rect x="368" y="160" width="16" height="16"/>
<rect x="264" y="160" width="88" height="16"/>
<rect x="264" y="192" width="120" height="16"/>
<g>
</g>
<g>
</g>
<g>
</g>
<g>
</g>
<g>
</g>
<g>
</g>
<g>
</g>
<g>
</g>
<g>
</g>
<g>
</g>
<g>
</g>
<g>
</g>
<g>
</g>
<g>
</g>
<g>
</g>
</svg>
